<?xml version="1.0" encoding="UTF-8"?>
<svg width="98px" height="146px" viewBox="0 0 98 146" version="1.1" xmlns="http://www.w3.org/2000/svg" xmlns:xlink="http://www.w3.org/1999/xlink">
    <!-- Generator: Sketch 48.2 (47327) - http://www.bohemiancoding.com/sketch -->
    <title>Group</title>
    <desc>Created with Sketch.</desc>
    <defs></defs>
    <g id="Page-1" stroke="none" stroke-width="1" fill="none" fill-rule="evenodd">
        <g id="Group" fill="#FFFFFF">
            <path d="M9.2277192,0 L88.4391755,-2.30926389e-14 C93.5355041,-2.40288193e-14 97.6668947,4.13139061 97.6668947,9.2277192 C97.6668947,11.6766621 96.6934236,14.0251677 94.9608934,15.7559653 L15.7494371,94.8882102 C12.1439863,98.4900555 6.3013184,98.4871327 2.69947307,94.8816819 C0.970936445,93.151415 -3.79885333e-14,90.8057078 -4.26325641e-14,88.359964 L0,9.2277192 C-6.2412025e-16,4.13139061 4.13139061,-8.40176465e-16 9.2277192,-1.77635684e-15 Z" id="Rectangle-8-Copy-16"></path>
            <path d="M9.2277192,48 L88.4391755,48 C93.5355041,48 97.6668947,52.1313906 97.6668947,57.2277192 C97.6668947,59.6766621 96.6934236,62.0251677 94.9608934,63.7559653 L15.7494371,142.88821 C12.1439863,146.490055 6.3013184,146.487133 2.69947307,142.881682 C0.970936445,141.151415 2.90155551e-14,138.805708 3.19744231e-14,136.359964 L0,57.2277192 C-6.2412025e-16,52.1313906 4.13139061,48 9.2277192,48 Z" id="Rectangle-8-Copy-17" opacity="0.550000012"></path>
        </g>
    </g>
</svg>